<?xml version="1.0" encoding="UTF-8" standalone="no"?>
<!-- Created with Inkscape (http://www.inkscape.org/) -->

<svg
   width="511.99997"
   height="312.08707"
   viewBox="0 0 135.46665 82.573038"
   version="1.1"
   id="svg1"
   inkscape:version="1.4.2 (1:1.4.2+202505120737+ebf0e940d0)"
   sodipodi:docname="stars_and_galaxies.svg"
   xmlns:inkscape="http://www.inkscape.org/namespaces/inkscape"
   xmlns:sodipodi="http://sodipodi.sourceforge.net/DTD/sodipodi-0.dtd"
   xmlns="http://www.w3.org/2000/svg"
   xmlns:svg="http://www.w3.org/2000/svg">
  <sodipodi:namedview
     id="namedview1"
     pagecolor="#ffffff"
     bordercolor="#000000"
     borderopacity="0.25"
     inkscape:showpageshadow="2"
     inkscape:pageopacity="0.0"
     inkscape:pagecheckerboard="0"
     inkscape:deskcolor="#d1d1d1"
     inkscape:document-units="px"
     showguides="true"
     inkscape:zoom="1.2951324"
     inkscape:cx="221.2129"
     inkscape:cy="119.29282"
     inkscape:window-width="2560"
     inkscape:window-height="1371"
     inkscape:window-x="0"
     inkscape:window-y="32"
     inkscape:window-maximized="1"
     inkscape:current-layer="layer1" />
  <defs
     id="defs1" />
  <g
     inkscape:label="Layer 1"
     inkscape:groupmode="layer"
     id="layer1"
     transform="translate(0,-26.446915)">
    <path
       sodipodi:type="star"
       style="fill:#4d4d4d;fill-opacity:1;stroke:none;stroke-width:0.344994;stroke-linejoin:round;stroke-dasharray:none;stroke-opacity:1"
       id="path170-9"
       inkscape:flatsided="false"
       sodipodi:sides="4"
       sodipodi:cx="647.09552"
       sodipodi:cy="199.78777"
       sodipodi:r1="4.867784"
       sodipodi:r2="1.8497579"
       sodipodi:arg1="1.3089969"
       sodipodi:arg2="2.0943951"
       inkscape:rounded="0.1"
       inkscape:randomized="0"
       d="m 648.3554,204.48968 c -0.36633,0.0982 -1.85632,-2.91035 -2.18476,-3.09998 -0.32844,-0.18962 -3.67888,0.0243 -3.77704,-0.34206 -0.0982,-0.36633 2.91036,-1.85631 3.09998,-2.18475 0.18963,-0.32844 -0.0243,-3.67889 0.34206,-3.77704 0.36633,-0.0982 1.85632,2.91035 2.18476,3.09998 0.32844,0.18962 3.67888,-0.0243 3.77704,0.34206 0.0982,0.36633 -2.91036,1.85631 -3.09998,2.18475 -0.18963,0.32844 0.0243,3.67889 -0.34206,3.77704 z"
       transform="matrix(-1.4872184,-0.37533604,-0.37533604,1.4872184,1166.3067,41.287839)" />
    <path
       sodipodi:type="star"
       style="fill:#000000;fill-opacity:1;stroke:none;stroke-width:0.707641;stroke-linejoin:round;stroke-dasharray:none;stroke-opacity:1"
       id="path428"
       inkscape:flatsided="false"
       sodipodi:sides="4"
       sodipodi:cx="647.09552"
       sodipodi:cy="199.78777"
       sodipodi:r1="4.867784"
       sodipodi:r2="1.8497579"
       sodipodi:arg1="1.3089969"
       sodipodi:arg2="2.0943951"
       inkscape:rounded="0.1"
       inkscape:randomized="0"
       d="m 648.3554,204.48968 c -0.36633,0.0982 -1.85632,-2.91035 -2.18476,-3.09998 -0.32844,-0.18962 -3.67888,0.0243 -3.77704,-0.34206 -0.0982,-0.36633 2.91036,-1.85631 3.09998,-2.18475 0.18963,-0.32844 -0.0243,-3.67889 0.34206,-3.77704 0.36633,-0.0982 1.85632,2.91035 2.18476,3.09998 0.32844,0.18962 3.67888,-0.0243 3.77704,0.34206 0.0982,0.36633 -2.91036,1.85631 -3.09998,2.18475 -0.18963,0.32844 0.0243,3.67889 -0.34206,3.77704 z"
       transform="matrix(-0.57744153,0.47513719,0.47513719,0.57744153,390.30316,-360.94279)" />
    <path
       id="path429"
       style="color:#000000;font-style:normal;font-variant:normal;font-weight:normal;font-stretch:normal;font-size:medium;line-height:normal;font-family:sans-serif;font-variant-ligatures:normal;font-variant-position:normal;font-variant-caps:normal;font-variant-numeric:normal;font-variant-alternates:normal;font-variant-east-asian:normal;font-feature-settings:normal;font-variation-settings:normal;text-indent:0;text-align:start;text-decoration-line:none;text-decoration-style:solid;text-decoration-color:#000000;letter-spacing:normal;word-spacing:normal;text-transform:none;writing-mode:lr-tb;direction:ltr;text-orientation:mixed;dominant-baseline:auto;baseline-shift:baseline;text-anchor:start;white-space:normal;shape-padding:0;shape-margin:0;inline-size:0;clip-rule:nonzero;display:inline;overflow:visible;visibility:visible;isolation:auto;mix-blend-mode:normal;color-interpolation:sRGB;color-interpolation-filters:linearRGB;solid-color:#000000;solid-opacity:1;fill:#000000;fill-opacity:1;fill-rule:evenodd;stroke:none;stroke-width:0.264583;stroke-linecap:butt;stroke-linejoin:miter;stroke-miterlimit:4;stroke-dasharray:none;stroke-dashoffset:0;stroke-opacity:0.575207;color-rendering:auto;image-rendering:auto;shape-rendering:auto;text-rendering:auto;enable-background:accumulate;stop-color:#000000"
       d="m 81.339932,55.287294 c -0.38952,-0.007 -0.946082,0.01252 -1.655385,0.08105 -1.368099,0.130883 -3.493724,0.478314 -5.611135,1.366034 -0.157247,0.06572 -0.314729,0.135108 -0.472211,0.207238 -1.900026,0.871777 -3.415609,2.01894 -4.422329,3.411541 -1.074172,1.483986 -1.549482,3.257361 -1.258355,5.233475 0.307063,2.043771 1.461407,4.277005 3.367035,6.483592 2.604603,3.010639 6.737034,5.909538 11.578227,8.0553 2.381814,1.056851 4.948154,1.916798 7.534764,2.47311 2.679574,0.570628 5.292744,0.778257 7.602028,0.597305 3.154889,-0.251987 5.572519,-1.301711 6.733369,-2.984477 0.57594,-0.829539 0.80908,-1.830352 0.62014,-2.961633 -0.20966,-1.179035 -0.89785,-2.447161 -2.01658,-3.703685 -1.54459,-1.726099 -3.895119,-3.339348 -6.684438,-4.553987 -2.905345,-1.267946 -6.149007,-1.933665 -8.963837,-1.719089 -1.889543,0.182047 -3.283678,0.826448 -3.95715,1.860549 -0.568595,0.863688 -0.480192,1.980707 0.285705,3.221139 -0.766757,-0.390302 -1.497934,-0.883441 -2.057469,-1.436756 -0.584162,-0.577669 -1.032935,-1.229996 -1.216594,-1.85239 -0.181187,-0.578451 -0.132839,-1.165954 0.125798,-1.707691 0.506947,-1.039484 1.876955,-1.869531 3.876242,-2.139605 1.466829,-0.198789 3.245931,-0.14872 5.134425,0.182203 1.793262,0.309253 3.722992,0.880938 5.612715,1.636969 3.821722,1.532317 7.400193,3.807546 9.765053,6.253487 1.79973,1.860502 2.98818,3.792056 3.4551,5.577831 0.47793,1.807688 0.23087,3.462126 -0.51954,4.861346 -0.76104,1.416033 -2.03249,2.566114 -3.5818,3.45072 -0.13284,0.07589 -0.26505,0.148329 -0.39773,0.21866 -1.80059,0.953459 -3.65886,1.464083 -4.798738,1.752276 -1.194924,0.302134 -1.830305,0.437476 -1.7459,0.530964 0.08387,0.09388 0.891209,0.14606 2.309988,0.01017 1.36792,-0.130883 3.49354,-0.478313 5.61096,-1.366034 0.15725,-0.06571 0.31473,-0.135107 0.47214,-0.207316 1.90002,-0.871784 3.41578,-2.018407 4.42232,-3.411001 1.07436,-1.483985 1.54949,-3.2579 1.25836,-5.233999 -0.30683,-2.043755 -1.46141,-4.276488 -3.36686,-6.483076 -2.60478,-3.01063 -6.73703,-5.909514 -11.578403,-8.055276 -2.381805,-1.056866 -4.947621,-1.916798 -7.534059,-2.47311 -2.679574,-0.570628 -5.293268,-0.778257 -7.602732,-0.597305 -3.154712,0.251987 -5.571823,1.301695 -6.732841,2.984477 -0.575948,0.829562 -0.808909,1.829812 -0.620149,2.961094 0.209898,1.179058 0.897507,2.44716 2.016232,3.703684 1.54442,1.7261 3.89512,3.339348 6.684266,4.553987 2.905526,1.26793 6.149007,1.933666 8.963838,1.719089 1.889542,-0.182047 3.283677,-0.826448 3.957158,-1.860549 0.568829,-0.863797 0.480582,-1.981098 -0.285549,-3.221679 0.766757,0.390302 1.498286,0.88384 2.058001,1.437296 0.584006,0.577669 1.032403,1.229996 1.21589,1.85239 0.181421,0.578373 0.132839,1.16597 -0.125798,1.707684 -0.50679,1.039507 -1.876963,1.869523 -3.87607,2.139628 -1.466837,0.198711 -3.246111,0.149268 -5.134433,-0.181734 -1.793254,-0.309253 -3.723165,-0.880937 -5.612707,-1.636961 -3.821722,-1.532309 -7.400204,-3.808094 -9.765236,-6.254034 -1.799716,-1.860503 -2.987998,-3.792056 -3.454929,-5.577831 -0.477922,-1.807696 -0.230316,-3.462134 0.520012,-4.861347 0.761046,-1.416048 2.031965,-2.566137 3.581274,-3.45072 0.132839,-0.07588 0.26513,-0.148329 0.397735,-0.21866 1.800592,-0.953459 3.658857,-1.463543 4.798736,-1.751736 1.194916,-0.302134 1.830125,-0.438024 1.74572,-0.531512 -0.04225,-0.04694 -0.264895,-0.08355 -0.654415,-0.09137 z" />
    <path
       id="path430"
       style="fill:#ffffff;stroke-width:2.64585;stroke-linecap:round;stroke-linejoin:round"
       d="m 92.761069,73.596376 a 3.1155274,1.5577637 20 0 1 -3.46035,0.398282 3.1155274,1.5577637 20 0 1 -2.39491,-2.529399 3.1155274,1.5577637 20 0 1 3.460343,-0.398204 3.1155274,1.5577637 20 0 1 2.394917,2.529383 z" />
    <path
       sodipodi:type="star"
       style="fill:#4d4d4d;fill-opacity:1;stroke:none;stroke-width:1.00827;stroke-linejoin:round;stroke-dasharray:none;stroke-opacity:1"
       id="path432"
       inkscape:flatsided="false"
       sodipodi:sides="4"
       sodipodi:cx="647.09552"
       sodipodi:cy="199.78777"
       sodipodi:r1="4.867784"
       sodipodi:r2="1.8497579"
       sodipodi:arg1="1.3089969"
       sodipodi:arg2="2.0943951"
       inkscape:rounded="0.1"
       inkscape:randomized="0"
       d="m 648.3554,204.48968 c -0.36633,0.0982 -1.85632,-2.91035 -2.18476,-3.09998 -0.32844,-0.18962 -3.67888,0.0243 -3.77704,-0.34206 -0.0982,-0.36633 2.91036,-1.85631 3.09998,-2.18475 0.18963,-0.32844 -0.0243,-3.67889 0.34206,-3.77704 0.36633,-0.0982 1.85632,2.91035 2.18476,3.09998 0.32844,0.18962 3.67888,-0.0243 3.77704,0.34206 0.0982,0.36633 -2.91036,1.85631 -3.09998,2.18475 -0.18963,0.32844 0.0243,3.67889 -0.34206,3.77704 z"
       transform="matrix(-0.51953886,0.07432532,0.07432532,0.51953886,378.06177,-78.639269)" />
    <path
       sodipodi:type="star"
       style="fill:#4d4d4d;fill-opacity:1;stroke:none;stroke-width:0.768766;stroke-linejoin:round;stroke-dasharray:none;stroke-opacity:1"
       id="path434"
       inkscape:flatsided="false"
       sodipodi:sides="4"
       sodipodi:cx="647.09552"
       sodipodi:cy="199.78777"
       sodipodi:r1="4.867784"
       sodipodi:r2="1.8497579"
       sodipodi:arg1="1.3089969"
       sodipodi:arg2="2.0943951"
       inkscape:rounded="0.1"
       inkscape:randomized="0"
       d="m 648.3554,204.48968 c -0.36633,0.0982 -1.85632,-2.91035 -2.18476,-3.09998 -0.32844,-0.18962 -3.67888,0.0243 -3.77704,-0.34206 -0.0982,-0.36633 2.91036,-1.85631 3.09998,-2.18475 0.18963,-0.32844 -0.0243,-3.67889 0.34206,-3.77704 0.36633,-0.0982 1.85632,2.91035 2.18476,3.09998 0.32844,0.18962 3.67888,-0.0243 3.77704,0.34206 0.0982,0.36633 -2.91036,1.85631 -3.09998,2.18475 -0.18963,0.32844 0.0243,3.67889 -0.34206,3.77704 z"
       transform="matrix(0.53152902,0.43735892,-0.43735892,0.53152902,-150.25032,-336.97476)" />
    <path
       sodipodi:type="star"
       style="fill:#4d4d4d;fill-opacity:1;stroke:none;stroke-width:1.00827;stroke-linejoin:round;stroke-dasharray:none;stroke-opacity:1"
       id="path435"
       inkscape:flatsided="false"
       sodipodi:sides="4"
       sodipodi:cx="647.09552"
       sodipodi:cy="199.78777"
       sodipodi:r1="4.867784"
       sodipodi:r2="1.8497579"
       sodipodi:arg1="1.3089969"
       sodipodi:arg2="2.0943951"
       inkscape:rounded="0.1"
       inkscape:randomized="0"
       d="m 648.3554,204.48968 c -0.36633,0.0982 -1.85632,-2.91035 -2.18476,-3.09998 -0.32844,-0.18962 -3.67888,0.0243 -3.77704,-0.34206 -0.0982,-0.36633 2.91036,-1.85631 3.09998,-2.18475 0.18963,-0.32844 -0.0243,-3.67889 0.34206,-3.77704 0.36633,-0.0982 1.85632,2.91035 2.18476,3.09998 0.32844,0.18962 3.67888,-0.0243 3.77704,0.34206 0.0982,0.36633 -2.91036,1.85631 -3.09998,2.18475 -0.18963,0.32844 0.0243,3.67889 -0.34206,3.77704 z"
       transform="matrix(0.40526965,-0.33346871,-0.33346871,-0.40526965,-78.602239,349.98239)" />
    <path
       sodipodi:type="star"
       style="fill:#000000;fill-opacity:1;stroke:none;stroke-width:1.51776;stroke-linejoin:round;stroke-dasharray:none;stroke-opacity:1"
       id="path436"
       inkscape:flatsided="false"
       sodipodi:sides="4"
       sodipodi:cx="647.09552"
       sodipodi:cy="199.78777"
       sodipodi:r1="4.867784"
       sodipodi:r2="1.8497579"
       sodipodi:arg1="1.3089969"
       sodipodi:arg2="2.0943951"
       inkscape:rounded="0.1"
       inkscape:randomized="0"
       d="m 648.3554,204.48968 c -0.36633,0.0982 -1.85632,-2.91035 -2.18476,-3.09998 -0.32844,-0.18962 -3.67888,0.0243 -3.77704,-0.34206 -0.0982,-0.36633 2.91036,-1.85631 3.09998,-2.18475 0.18963,-0.32844 -0.0243,-3.67889 0.34206,-3.77704 0.36633,-0.0982 1.85632,2.91035 2.18476,3.09998 0.32844,0.18962 3.67888,-0.0243 3.77704,0.34206 0.0982,0.36633 -2.91036,1.85631 -3.09998,2.18475 -0.18963,0.32844 0.0243,3.67889 -0.34206,3.77704 z"
       transform="matrix(-0.0937877,-0.33579923,-0.33579923,0.0937877,182.07244,262.76114)" />
    <path
       sodipodi:type="star"
       style="fill:#4d4d4d;fill-opacity:1;stroke:none;stroke-width:0.92214;stroke-linejoin:round;stroke-dasharray:none;stroke-opacity:1"
       id="path441"
       inkscape:flatsided="false"
       sodipodi:sides="4"
       sodipodi:cx="647.09552"
       sodipodi:cy="199.78777"
       sodipodi:r1="4.867784"
       sodipodi:r2="1.8497579"
       sodipodi:arg1="1.3089969"
       sodipodi:arg2="2.0943951"
       inkscape:rounded="0.1"
       inkscape:randomized="0"
       d="m 648.3554,204.48968 c -0.36633,0.0982 -1.85632,-2.91035 -2.18476,-3.09998 -0.32844,-0.18962 -3.67888,0.0243 -3.77704,-0.34206 -0.0982,-0.36633 2.91036,-1.85631 3.09998,-2.18475 0.18963,-0.32844 -0.0243,-3.67889 0.34206,-3.77704 0.36633,-0.0982 1.85632,2.91035 2.18476,3.09998 0.32844,0.18962 3.67888,-0.0243 3.77704,0.34206 0.0982,0.36633 -2.91036,1.85631 -3.09998,2.18475 -0.18963,0.32844 0.0243,3.67889 -0.34206,3.77704 z"
       transform="matrix(0.55640188,-0.14042166,0.14042166,0.55640188,-266.16068,43.39372)" />
    <path
       sodipodi:type="star"
       style="fill:#000000;fill-opacity:1;stroke:none;stroke-width:0.344994;stroke-linejoin:round;stroke-dasharray:none;stroke-opacity:1"
       id="path464"
       inkscape:flatsided="false"
       sodipodi:sides="4"
       sodipodi:cx="647.09552"
       sodipodi:cy="199.78777"
       sodipodi:r1="4.867784"
       sodipodi:r2="1.8497579"
       sodipodi:arg1="1.3089969"
       sodipodi:arg2="2.0943951"
       inkscape:rounded="0.1"
       inkscape:randomized="0"
       d="m 648.3554,204.48968 c -0.36633,0.0982 -1.85632,-2.91035 -2.18476,-3.09998 -0.32844,-0.18962 -3.67888,0.0243 -3.77704,-0.34206 -0.0982,-0.36633 2.91036,-1.85631 3.09998,-2.18475 0.18963,-0.32844 -0.0243,-3.67889 0.34206,-3.77704 0.36633,-0.0982 1.85632,2.91035 2.18476,3.09998 0.32844,0.18962 3.67888,-0.0243 3.77704,0.34206 0.0982,0.36633 -2.91036,1.85631 -3.09998,2.18475 -0.18963,0.32844 0.0243,3.67889 -0.34206,3.77704 z"
       transform="matrix(-1.2708862,0.85880378,0.85880378,1.2708862,724.87642,-707.67915)" />
    <path
       id="path1"
       style="color:#000000;font-style:normal;font-variant:normal;font-weight:normal;font-stretch:normal;font-size:medium;line-height:normal;font-family:sans-serif;font-variant-ligatures:normal;font-variant-position:normal;font-variant-caps:normal;font-variant-numeric:normal;font-variant-alternates:normal;font-variant-east-asian:normal;font-feature-settings:normal;font-variation-settings:normal;text-indent:0;text-align:start;text-decoration-line:none;text-decoration-style:solid;text-decoration-color:#000000;letter-spacing:normal;word-spacing:normal;text-transform:none;writing-mode:lr-tb;direction:ltr;text-orientation:mixed;dominant-baseline:auto;baseline-shift:baseline;text-anchor:start;white-space:normal;shape-padding:0;shape-margin:0;inline-size:0;clip-rule:nonzero;display:inline;overflow:visible;visibility:visible;isolation:auto;mix-blend-mode:normal;color-interpolation:sRGB;color-interpolation-filters:linearRGB;solid-color:#000000;solid-opacity:1;fill:#000000;fill-opacity:1;fill-rule:evenodd;stroke:none;stroke-width:0.264583;stroke-linecap:butt;stroke-linejoin:miter;stroke-miterlimit:4;stroke-dasharray:none;stroke-dashoffset:0;stroke-opacity:0.575207;color-rendering:auto;image-rendering:auto;shape-rendering:auto;text-rendering:auto;enable-background:accumulate;stop-color:#000000"
       d="m 23.003231,58.29087 c -0.232591,0.0042 -0.564927,-0.0075 -0.988467,-0.0484 -0.816922,-0.07815 -2.086179,-0.285611 -3.350531,-0.815688 -0.0939,-0.03924 -0.187932,-0.08068 -0.281968,-0.123747 -1.134547,-0.520556 -2.039535,-1.205552 -2.640669,-2.037105 -0.641411,-0.88612 -0.925229,-1.945041 -0.751391,-3.125022 0.183354,-1.22038 0.872638,-2.553893 2.01053,-3.871495 1.555266,-1.797717 4.02283,-3.528713 6.913612,-4.809994 1.422233,-0.631069 2.954651,-1.144563 4.499172,-1.476749 1.600032,-0.340734 3.160413,-0.464714 4.539337,-0.356664 1.883854,0.150467 3.327472,0.77728 4.020639,1.782097 0.343911,0.495335 0.48312,1.092943 0.370304,1.768456 -0.125194,0.704027 -0.536126,1.461253 -1.204146,2.211551 -0.92231,1.030691 -2.325861,1.993997 -3.991424,2.719284 -1.734845,0.757119 -3.671706,1.154634 -5.352503,1.026506 -1.128287,-0.108704 -1.960756,-0.49349 -2.362901,-1.110974 -0.33952,-0.515727 -0.286732,-1.182724 0.170601,-1.923413 -0.457847,0.233058 -0.894449,0.527522 -1.228559,0.857919 -0.348817,0.344939 -0.616789,0.734457 -0.726455,1.106102 -0.108191,0.345406 -0.07932,0.696217 0.07512,1.0197 0.302709,0.620698 1.120771,1.116338 2.314589,1.277605 0.875876,0.118701 1.938216,0.0888 3.065877,-0.108798 1.070796,-0.184662 2.22308,-0.526027 3.351475,-0.97747 2.282034,-0.91498 4.418818,-2.273569 5.830928,-3.734093 1.074654,-1.110947 1.784306,-2.26432 2.063116,-3.330645 0.285378,-1.07941 0.137854,-2.067311 -0.31023,-2.902816 -0.454437,-0.845544 -1.213644,-1.532282 -2.13877,-2.0605 -0.07932,-0.04531 -0.158268,-0.08857 -0.237496,-0.130566 -1.075173,-0.569332 -2.184784,-0.874236 -2.86543,-1.046323 -0.713515,-0.18041 -1.092915,-0.261226 -1.042515,-0.31705 0.05008,-0.05606 0.53216,-0.08722 1.379344,-0.0061 0.816814,0.07815 2.086071,0.285612 3.350428,0.815689 0.0939,0.03924 0.187932,0.08068 0.281921,0.123793 1.134547,0.520561 2.039642,1.205235 2.640669,2.036783 0.641519,0.88612 0.925234,1.945363 0.751391,3.125335 -0.183213,1.220371 -0.872638,2.553584 -2.010422,3.871186 -1.555373,1.797713 -4.02283,3.5287 -6.91372,4.809981 -1.422228,0.631078 -2.954332,1.144563 -4.498751,1.476748 -1.600032,0.340735 -3.160726,0.464715 -4.539757,0.356664 -1.883747,-0.150466 -3.327057,-0.77727 -4.020326,-1.782096 -0.343911,-0.49535 -0.483017,-1.092621 -0.370305,-1.768134 0.125335,-0.704041 0.535921,-1.461253 1.203936,-2.211551 0.922207,-1.030691 2.325861,-1.993997 3.991322,-2.719284 1.734952,-0.757109 3.671706,-1.154634 5.352502,-1.026506 1.128287,0.108704 1.960756,0.49349 2.362906,1.110974 0.33966,0.515792 0.286966,1.182957 -0.170508,1.923735 0.457848,-0.233058 0.89466,-0.52776 1.228878,-0.858241 0.348722,-0.344939 0.61647,-0.734457 0.726034,-1.106102 0.108331,-0.34536 0.07932,-0.696226 -0.07512,-1.019695 -0.302615,-0.620713 -1.120775,-1.116333 -2.314486,-1.277619 -0.87588,-0.118655 -1.938323,-0.08913 -3.065881,0.108517 -1.070792,0.184662 -2.223183,0.526027 -3.35147,0.977465 -2.282034,0.914976 -4.418823,2.273896 -5.831036,3.734421 -1.074649,1.110946 -1.784198,2.264319 -2.063013,3.330644 -0.285378,1.079415 -0.137527,2.067316 0.31051,2.902816 0.454437,0.845554 1.213331,1.532297 2.138457,2.060501 0.07932,0.04531 0.158315,0.08857 0.237496,0.130566 1.075173,0.569331 2.184784,0.873914 2.865431,1.046 0.71351,0.180411 1.092807,0.261554 1.042407,0.317377 -0.02523,0.02803 -0.158175,0.04989 -0.390766,0.05456 z" />
    <path
       id="path2"
       style="fill:#ffffff;stroke-width:2.64585;stroke-linecap:round;stroke-linejoin:round"
       d="m 29.823041,47.358118 a 0.9301747,1.8603494 70 0 0 -2.066251,-0.237823 0.9301747,1.8603494 70 0 0 -1.430053,1.510359 0.9301747,1.8603494 70 0 0 2.066246,0.237776 0.9301747,1.8603494 70 0 0 1.430058,-1.51035 z" />
    <path
       sodipodi:type="star"
       style="fill:#000000;fill-opacity:1;stroke:none;stroke-width:1.00827;stroke-linejoin:round;stroke-dasharray:none;stroke-opacity:1"
       id="path3"
       inkscape:flatsided="false"
       sodipodi:sides="4"
       sodipodi:cx="647.09552"
       sodipodi:cy="199.78777"
       sodipodi:r1="4.867784"
       sodipodi:r2="1.8497579"
       sodipodi:arg1="1.3089969"
       sodipodi:arg2="2.0943951"
       inkscape:rounded="0.1"
       inkscape:randomized="0"
       d="m 648.3554,204.48968 c -0.36633,0.0982 -1.85632,-2.91035 -2.18476,-3.09998 -0.32844,-0.18962 -3.67888,0.0243 -3.77704,-0.34206 -0.0982,-0.36633 2.91036,-1.85631 3.09998,-2.18475 0.18963,-0.32844 -0.0243,-3.67889 0.34206,-3.77704 0.36633,-0.0982 1.85632,2.91035 2.18476,3.09998 0.32844,0.18962 3.67888,-0.0243 3.77704,0.34206 0.0982,0.36633 -2.91036,1.85631 -3.09998,2.18475 -0.18963,0.32844 0.0243,3.67889 -0.34206,3.77704 z"
       transform="matrix(-0.52096164,-0.0635913,-0.0635913,0.52096164,399.02168,6.5064873)" />
    <path
       sodipodi:type="star"
       style="fill:#4d4d4d;fill-opacity:1;stroke:none;stroke-width:0.344994;stroke-linejoin:round;stroke-dasharray:none;stroke-opacity:1"
       id="path4"
       inkscape:flatsided="false"
       sodipodi:sides="4"
       sodipodi:cx="647.09552"
       sodipodi:cy="199.78777"
       sodipodi:r1="4.867784"
       sodipodi:r2="1.8497579"
       sodipodi:arg1="1.3089969"
       sodipodi:arg2="2.0943951"
       inkscape:rounded="0.1"
       inkscape:randomized="0"
       d="m 648.3554,204.48968 c -0.36633,0.0982 -1.85632,-2.91035 -2.18476,-3.09998 -0.32844,-0.18962 -3.67888,0.0243 -3.77704,-0.34206 -0.0982,-0.36633 2.91036,-1.85631 3.09998,-2.18475 0.18963,-0.32844 -0.0243,-3.67889 0.34206,-3.77704 0.36633,-0.0982 1.85632,2.91035 2.18476,3.09998 0.32844,0.18962 3.67888,-0.0243 3.77704,0.34206 0.0982,0.36633 -2.91036,1.85631 -3.09998,2.18475 -0.18963,0.32844 0.0243,3.67889 -0.34206,3.77704 z"
       transform="matrix(-1.4527953,-0.49201783,0.49201783,-1.4527953,898.80447,642.53099)" />
    <path
       id="path5"
       style="color:#000000;font-style:normal;font-variant:normal;font-weight:normal;font-stretch:normal;font-size:medium;line-height:normal;font-family:sans-serif;font-variant-ligatures:normal;font-variant-position:normal;font-variant-caps:normal;font-variant-numeric:normal;font-variant-alternates:normal;font-variant-east-asian:normal;font-feature-settings:normal;font-variation-settings:normal;text-indent:0;text-align:start;text-decoration-line:none;text-decoration-style:solid;text-decoration-color:#000000;letter-spacing:normal;word-spacing:normal;text-transform:none;writing-mode:lr-tb;direction:ltr;text-orientation:mixed;dominant-baseline:auto;baseline-shift:baseline;text-anchor:start;white-space:normal;shape-padding:0;shape-margin:0;inline-size:0;clip-rule:nonzero;display:inline;overflow:visible;visibility:visible;isolation:auto;mix-blend-mode:normal;color-interpolation:sRGB;color-interpolation-filters:linearRGB;solid-color:#000000;solid-opacity:1;fill:#4d4d4d;fill-opacity:0.980392;fill-rule:evenodd;stroke:none;stroke-width:0.264583;stroke-linecap:butt;stroke-linejoin:miter;stroke-miterlimit:4;stroke-dasharray:none;stroke-dashoffset:0;stroke-opacity:0.575207;color-rendering:auto;image-rendering:auto;shape-rendering:auto;text-rendering:auto;enable-background:accumulate;stop-color:#000000"
       d="m 49.304644,97.66537 c -0.109154,0.002 -0.265117,-0.0035 -0.463883,-0.02271 -0.383379,-0.03668 -0.979036,-0.134037 -1.572392,-0.3828 -0.04407,-0.01841 -0.08819,-0.03786 -0.132326,-0.05807 -0.532438,-0.244295 -0.957146,-0.565761 -1.239256,-0.956005 -0.301012,-0.415853 -0.434206,-0.9128 -0.352625,-1.466561 0.08605,-0.57272 0.409526,-1.198532 0.943534,-1.816877 0.72988,-0.843662 1.887899,-1.656012 3.244532,-2.257312 0.667448,-0.296159 1.386606,-0.537139 2.111444,-0.693033 0.750888,-0.159905 1.483169,-0.218088 2.130293,-0.167381 0.884085,0.07061 1.56157,0.364775 1.88687,0.836331 0.161396,0.232459 0.226726,0.512914 0.173783,0.82993 -0.05875,0.330397 -0.251603,0.68576 -0.565102,1.037872 -0.432836,0.4837 -1.091517,0.935776 -1.87316,1.27615 -0.814156,0.355313 -1.723117,0.541865 -2.511908,0.481735 -0.529501,-0.05101 -0.920175,-0.231593 -1.108901,-0.521376 -0.159335,-0.242028 -0.134562,-0.555047 0.08006,-0.90265 -0.214866,0.109373 -0.419762,0.247564 -0.576558,0.402618 -0.163699,0.161878 -0.289457,0.344678 -0.340923,0.51909 -0.05077,0.162097 -0.03722,0.326731 0.03525,0.478541 0.14206,0.291291 0.525973,0.523893 1.086228,0.599575 0.411045,0.05571 0.909597,0.04167 1.438804,-0.05106 0.50252,-0.08666 1.043283,-0.246862 1.572834,-0.458722 1.07095,-0.429397 2.073734,-1.066978 2.736432,-1.752396 0.504331,-0.521363 0.837368,-1.062636 0.968212,-1.563059 0.133927,-0.506563 0.0647,-0.970181 -0.14559,-1.36228 -0.213265,-0.39681 -0.569558,-0.719094 -1.003716,-0.966985 -0.03722,-0.02126 -0.07428,-0.04157 -0.111456,-0.06127 -0.504574,-0.267185 -1.02531,-0.410276 -1.344735,-0.491035 -0.33485,-0.08467 -0.512901,-0.122593 -0.489249,-0.148791 0.0235,-0.02631 0.249741,-0.04093 0.647321,-0.0028 0.383328,0.03668 0.978986,0.134036 1.572343,0.382799 0.04407,0.01842 0.0882,0.03786 0.132305,0.0581 0.532438,0.244297 0.957196,0.565612 1.239256,0.955854 0.301062,0.415853 0.434208,0.912952 0.352625,1.466708 -0.08598,0.572715 -0.409526,1.198387 -0.943484,1.816732 -0.72993,0.84366 -1.887898,1.656005 -3.244582,2.257306 -0.667446,0.296162 -1.386457,0.537139 -2.111246,0.693032 -0.750889,0.159905 -1.483317,0.218089 -2.130491,0.167381 -0.884035,-0.07061 -1.561375,-0.36477 -1.886723,-0.836331 -0.161396,-0.232466 -0.226678,-0.512763 -0.173783,-0.829778 0.05882,-0.330404 0.251506,-0.685761 0.565003,-1.037873 0.432788,-0.483699 1.091517,-0.935775 1.873111,-1.276149 0.814207,-0.355309 1.723118,-0.541866 2.511909,-0.481736 0.529501,0.05101 0.920175,0.231594 1.108903,0.521377 0.159401,0.242059 0.134672,0.555157 -0.08002,0.902801 0.214866,-0.109373 0.41986,-0.247676 0.576707,-0.402769 0.163655,-0.161879 0.289308,-0.344678 0.340726,-0.51909 0.05084,-0.162076 0.03722,-0.326736 -0.03525,-0.478539 -0.142017,-0.291298 -0.525976,-0.523891 -1.08618,-0.599581 -0.411047,-0.05568 -0.909647,-0.04183 -1.438806,0.05093 -0.502518,0.08666 -1.043331,0.246863 -1.572832,0.458721 -1.07095,0.429394 -2.073737,1.067131 -2.736482,1.752549 -0.504329,0.521363 -0.837318,1.062636 -0.968165,1.563059 -0.133926,0.506565 -0.06454,0.970183 0.145722,1.36228 0.213265,0.396815 0.569411,0.719101 1.003569,0.966985 0.03722,0.02127 0.0743,0.04157 0.111456,0.06127 0.504575,0.267185 1.025311,0.410124 1.344736,0.490884 0.334847,0.08467 0.51285,0.122746 0.489197,0.148944 -0.01184,0.01315 -0.07423,0.02341 -0.183384,0.02561 z" />
    <path
       id="path6"
       style="fill:#ffffff;fill-opacity:0.980392;stroke-width:2.64585;stroke-linecap:round;stroke-linejoin:round"
       d="m 52.505155,92.534672 a 0.43652738,0.87305477 70 0 0 -0.969684,-0.11161 0.43652738,0.87305477 70 0 0 -0.671118,0.708806 0.43652738,0.87305477 70 0 0 0.969681,0.111587 0.43652738,0.87305477 70 0 0 0.671121,-0.708801 z" />
    <path
       sodipodi:type="star"
       style="fill:#4d4d4d;fill-opacity:1;stroke:none;stroke-width:1.00827;stroke-linejoin:round;stroke-dasharray:none;stroke-opacity:1"
       id="path7"
       inkscape:flatsided="false"
       sodipodi:sides="4"
       sodipodi:cx="647.09552"
       sodipodi:cy="199.78777"
       sodipodi:r1="4.867784"
       sodipodi:r2="1.8497579"
       sodipodi:arg1="1.3089969"
       sodipodi:arg2="2.0943951"
       inkscape:rounded="0.1"
       inkscape:randomized="0"
       d="m 648.3554,204.48968 c -0.36633,0.0982 -1.85632,-2.91035 -2.18476,-3.09998 -0.32844,-0.18962 -3.67888,0.0243 -3.77704,-0.34206 -0.0982,-0.36633 2.91036,-1.85631 3.09998,-2.18475 0.18963,-0.32844 -0.0243,-3.67889 0.34206,-3.77704 0.36633,-0.0982 1.85632,2.91035 2.18476,3.09998 0.32844,0.18962 3.67888,-0.0243 3.77704,0.34206 0.0982,0.36633 -2.91036,1.85631 -3.09998,2.18475 -0.18963,0.32844 0.0243,3.67889 -0.34206,3.77704 z"
       transform="matrix(-0.3843315,-0.35739919,0.35739919,-0.3843315,186.64958,357.86314)" />
    <path
       sodipodi:type="star"
       style="fill:#000000;fill-opacity:1;stroke:none;stroke-width:1.51776;stroke-linejoin:round;stroke-dasharray:none;stroke-opacity:1"
       id="path8"
       inkscape:flatsided="false"
       sodipodi:sides="4"
       sodipodi:cx="647.09552"
       sodipodi:cy="199.78777"
       sodipodi:r1="4.867784"
       sodipodi:r2="1.8497579"
       sodipodi:arg1="1.3089969"
       sodipodi:arg2="2.0943951"
       inkscape:rounded="0.1"
       inkscape:randomized="0"
       d="m 648.3554,204.48968 c -0.36633,0.0982 -1.85632,-2.91035 -2.18476,-3.09998 -0.32844,-0.18962 -3.67888,0.0243 -3.77704,-0.34206 -0.0982,-0.36633 2.91036,-1.85631 3.09998,-2.18475 0.18963,-0.32844 -0.0243,-3.67889 0.34206,-3.77704 0.36633,-0.0982 1.85632,2.91035 2.18476,3.09998 0.32844,0.18962 3.67888,-0.0243 3.77704,0.34206 0.0982,0.36633 -2.91036,1.85631 -3.09998,2.18475 -0.18963,0.32844 0.0243,3.67889 -0.34206,3.77704 z"
       transform="matrix(-0.26857737,0.22231384,-0.22231384,-0.26857737,226.41981,-34.915953)" />
    <path
       sodipodi:type="star"
       style="fill:#000000;fill-opacity:1;stroke:none;stroke-width:1.00827;stroke-linejoin:round;stroke-dasharray:none;stroke-opacity:1"
       id="path9"
       inkscape:flatsided="false"
       sodipodi:sides="4"
       sodipodi:cx="647.09552"
       sodipodi:cy="199.78777"
       sodipodi:r1="4.867784"
       sodipodi:r2="1.8497579"
       sodipodi:arg1="1.3089969"
       sodipodi:arg2="2.0943951"
       inkscape:rounded="0.1"
       inkscape:randomized="0"
       d="m 648.3554,204.48968 c -0.36633,0.0982 -1.85632,-2.91035 -2.18476,-3.09998 -0.32844,-0.18962 -3.67888,0.0243 -3.77704,-0.34206 -0.0982,-0.36633 2.91036,-1.85631 3.09998,-2.18475 0.18963,-0.32844 -0.0243,-3.67889 0.34206,-3.77704 0.36633,-0.0982 1.85632,2.91035 2.18476,3.09998 0.32844,0.18962 3.67888,-0.0243 3.77704,0.34206 0.0982,0.36633 -2.91036,1.85631 -3.09998,2.18475 -0.18963,0.32844 0.0243,3.67889 -0.34206,3.77704 z"
       transform="matrix(-0.46416947,-0.24493178,0.24493178,-0.46416947,253.90489,299.80199)" />
    <path
       sodipodi:type="star"
       style="fill:#4d4d4d;fill-opacity:1;stroke:none;stroke-width:1.45537;stroke-linejoin:round;stroke-dasharray:none;stroke-opacity:1"
       id="path10"
       inkscape:flatsided="false"
       sodipodi:sides="4"
       sodipodi:cx="647.09552"
       sodipodi:cy="199.78777"
       sodipodi:r1="4.867784"
       sodipodi:r2="1.8497579"
       sodipodi:arg1="1.3089969"
       sodipodi:arg2="2.0943951"
       inkscape:rounded="0.1"
       inkscape:randomized="0"
       d="m 648.3554,204.48968 c -0.36633,0.0982 -1.85632,-2.91035 -2.18476,-3.09998 -0.32844,-0.18962 -3.67888,0.0243 -3.77704,-0.34206 -0.0982,-0.36633 2.91036,-1.85631 3.09998,-2.18475 0.18963,-0.32844 -0.0243,-3.67889 0.34206,-3.77704 0.36633,-0.0982 1.85632,2.91035 2.18476,3.09998 0.32844,0.18962 3.67888,-0.0243 3.77704,0.34206 0.0982,0.36633 -2.91036,1.85631 -3.09998,2.18475 -0.18963,0.32844 0.0243,3.67889 -0.34206,3.77704 z"
       transform="matrix(-0.26626284,-0.2476043,0.2476043,-0.26626284,127.03329,266.86458)" />
  </g>
</svg>
