<?xml version="1.0" encoding="UTF-8" standalone="no"?>
<!-- Created with Inkscape (http://www.inkscape.org/) -->

<svg
   width="512"
   height="512"
   viewBox="0 0 135.46666 135.46667"
   version="1.1"
   id="svg1"
   inkscape:version="1.4.2 (1:1.4.2+202505120737+ebf0e940d0)"
   sodipodi:docname="telescope.svg"
   xmlns:inkscape="http://www.inkscape.org/namespaces/inkscape"
   xmlns:sodipodi="http://sodipodi.sourceforge.net/DTD/sodipodi-0.dtd"
   xmlns="http://www.w3.org/2000/svg"
   xmlns:svg="http://www.w3.org/2000/svg">
  <sodipodi:namedview
     id="namedview1"
     pagecolor="#ffffff"
     bordercolor="#000000"
     borderopacity="0.25"
     inkscape:showpageshadow="2"
     inkscape:pageopacity="0.0"
     inkscape:pagecheckerboard="0"
     inkscape:deskcolor="#d1d1d1"
     inkscape:document-units="px"
     inkscape:zoom="0.6475662"
     inkscape:cx="238.58565"
     inkscape:cy="281.82447"
     inkscape:window-width="2560"
     inkscape:window-height="1371"
     inkscape:window-x="0"
     inkscape:window-y="32"
     inkscape:window-maximized="1"
     inkscape:current-layer="layer1" />
  <defs
     id="defs1" />
  <g
     inkscape:label="Layer 1"
     inkscape:groupmode="layer"
     id="layer1">
    <g
       id="g1"
       transform="matrix(2.5670195,0,0,2.5670195,-95.674735,-106.41409)"
       style="stroke-width:0.389557">
      <g
         id="layer1-5"
         transform="translate(-462.00458,-1402.8205)"
         style="fill:#000000;stroke-width:0.389557">
        <path
           id="path426"
           style="fill:#000000;fill-opacity:1;stroke-width:1.28838"
           d="m 532.37702,1467.2422 -2.69596,0.5731 a 3.232615,3.232615 0 0 1 -3.2241,3.0747 c -1.26022,0 -2.33921,-0.7262 -2.87527,-1.7761 l 2.23139,-0.4759 -3.64423,0.7746 a 0.77801629,0.77801629 0 0 0 0.0656,-0.01 l 0.19534,-0.042 c 0.18126,0.4138 0.41384,0.802 0.70538,1.1405 l -9.7038,26.5415 h 1.55133 l 10.28309,-25.1643 0.48473,25.1643 h 1.33997 l 0.48627,-25.1591 a 0.08378637,0.08378637 0 0 1 0.014,0 l 10.33735,25.1633 h 1.55391 l -9.74411,-26.493 c 0.68568,-0.7755 1.1157,-1.7807 1.1157,-2.8964 0,-0.031 -0.008,-0.059 -0.009,-0.088 z" />
        <path
           id="circle1"
           style="fill:#000000;fill-opacity:1;stroke-width:1.28838"
           d="m 544.46568,1444.2756 c -0.0909,0.01 -0.17841,0.03 -0.262,0.062 l -13.65084,6.5655 -0.62374,-1.6996 a 0.51126785,0.51126785 0 0 0 -0.71985,-0.2868 l -7.94577,3.9408 a 0.66430622,0.66430622 0 0 0 -0.31936,0.8021 l 0.62374,1.7001 -6.22081,3.0882 c -0.43305,0.1777 -0.64877,0.8366 -0.65888,1.789 l -9.15551,4.253 -0.88522,-2.4345 a 0.82076444,0.82076444 0 0 0 -1.03146,-0.4924 l -0.97565,0.3358 a 0.80195526,0.80195526 0 0 0 -0.49661,1.017 l 0.93844,2.7115 -2.17506,1.0113 c -0.66855,0.2738 -0.56437,2.2585 0.2341,4.4318 0.79649,2.171 1.98485,3.7097 2.65255,3.4359 l 14.25598,-5.1097 c 0.61388,0.6952 1.1931,1.0281 1.62625,0.8511 l 1.53014,-0.5044 0.10025,0.2729 a 0.77801629,0.77801629 0 0 0 0.90124,0.4842 l 3.53932,-1.1638 3.75584,-1.2381 2.61845,-0.861 0.91725,-0.3023 a 0.71816889,0.71816889 0 0 0 0.45166,-0.9322 l -0.10026,-0.2729 16.58607,-5.6606 c 1.33628,-0.5476 1.12705,-4.5147 -0.46715,-8.8599 -1.4943,-4.0712 -3.67483,-7.0304 -5.04259,-6.9324 z m -3.5574,3.3941 c -0.0253,1.6676 0.43055,4.0268 1.34307,6.5154 0.90751,2.4728 2.0674,4.5321 3.14554,5.749 l -25.73279,8.5122 c -0.7534,-0.9665 -1.53791,-2.4246 -2.15388,-4.1052 -0.617,-1.6822 -0.96756,-3.3186 -1.02784,-4.5703 z m -26.06198,14.3744 0.0258,0.07 c 0.16518,0.9117 0.44067,1.9271 0.82424,2.9725 0.38346,1.0445 0.82697,1.9881 1.28623,2.7801 l 0.0279,0.078 -13.42864,4.809 a 10.054364,10.054364 0 0 1 -1.13533,-2.2278 c -0.32005,-0.8726 -0.50811,-1.727 -0.58291,-2.4619 l 1.77922,-0.8247 0.75965,2.1962 a 0.80879496,0.80879496 0 0 0 1.02164,0.4987 l 5.45031,-1.8448 c 0.41777,-0.1439 0.61011,-0.5857 0.42633,-0.9871 l -0.54157,-1.1823 a 0.93276459,0.93276459 0 0 0 -1.0976,-0.4873 l -2.6324,0.8289 a 0.84042859,0.84042859 0 0 1 -0.83044,-0.2083 z m -1.32343,2.8008 a 0.73441321,0.73441321 0 0 0 -0.73432,0.7343 0.73441321,0.73441321 0 0 0 0.73432,0.7344 0.73441321,0.73441321 0 0 0 0.73432,-0.7344 0.73441321,0.73441321 0 0 0 -0.73432,-0.7343 z" />
      </g>
    </g>
    <ellipse
       style="opacity:1;fill:#ffffff;fill-opacity:0.980392;stroke:none;stroke-width:0.132292;stroke-linejoin:round"
       id="path1"
       cx="108.22921"
       cy="61.668232"
       rx="3.3483763"
       ry="11.223157"
       transform="matrix(0.93767633,-0.34750984,0.34757474,0.93765228,0,0)" />
  </g>
</svg>
