<?xml version="1.0" encoding="UTF-8" standalone="no"?>
<!-- Created with Inkscape (http://www.inkscape.org/) -->

<svg
   width="50.358047"
   height="29.082676"
   viewBox="0 0 13.3239 7.6947916"
   version="1.1"
   id="svg1"
   xml:space="preserve"
   inkscape:version="1.3 (1:1.3+202307231459+0e150ed6c4)"
   sodipodi:docname="design.svg"
   xmlns:inkscape="http://www.inkscape.org/namespaces/inkscape"
   xmlns:sodipodi="http://sodipodi.sourceforge.net/DTD/sodipodi-0.dtd"
   xmlns="http://www.w3.org/2000/svg"
   xmlns:svg="http://www.w3.org/2000/svg"><sodipodi:namedview
     id="namedview1"
     pagecolor="#ffffff"
     bordercolor="#000000"
     borderopacity="0.25"
     inkscape:showpageshadow="2"
     inkscape:pageopacity="0.0"
     inkscape:pagecheckerboard="0"
     inkscape:deskcolor="#d1d1d1"
     inkscape:document-units="px"
     showguides="true"
     inkscape:zoom="5.6568543"
     inkscape:cx="123.92046"
     inkscape:cy="44.37095"
     inkscape:window-width="1366"
     inkscape:window-height="704"
     inkscape:window-x="0"
     inkscape:window-y="27"
     inkscape:window-maximized="1"
     inkscape:current-layer="layer1" /><defs
     id="defs1" /><g
     inkscape:label="Layer 1"
     inkscape:groupmode="layer"
     id="layer1"
     transform="translate(-11.325716,-6.7359374)"><g
       id="g24"
       transform="matrix(1.5443293,0,0,1.5443293,59.043474,-6.6873361)"
       inkscape:export-filename="../website/frontend/src/assets/apod_logo.png"
       inkscape:export-xdpi="96"
       inkscape:export-ydpi="96"><text
         xml:space="preserve"
         style="font-size:0.901719px;line-height:1.5;font-family:Roboto;-inkscape-font-specification:Roboto;letter-spacing:0px;fill:#000000;stroke-width:0.473403;stroke-linecap:square"
         x="-30.924671"
         y="12.858665"
         id="text21"><tspan
           sodipodi:role="line"
           id="tspan21"
           x="-30.924671"
           y="12.858665"
           style="font-style:normal;font-variant:normal;font-weight:normal;font-stretch:normal;font-family:'Liberation Serif';-inkscape-font-specification:'Liberation Serif';fill:#000000;stroke-width:0.473403">Picture of</tspan></text><text
         xml:space="preserve"
         style="font-size:0.901719px;line-height:1.5;font-family:Roboto;-inkscape-font-specification:Roboto;letter-spacing:0px;fill:#000000;stroke-width:0.473403;stroke-linecap:square"
         x="-25.358786"
         y="12.858665"
         id="text22"><tspan
           sodipodi:role="line"
           id="tspan22"
           x="-25.358786"
           y="12.858665"
           style="font-style:normal;font-variant:normal;font-weight:normal;font-stretch:normal;font-family:'Liberation Serif';-inkscape-font-specification:'Liberation Serif';fill:#000000;stroke-width:0.473403">the</tspan></text><text
         xml:space="preserve"
         style="font-size:0.901719px;line-height:1.5;font-family:Roboto;-inkscape-font-specification:Roboto;letter-spacing:0px;fill:#000000;stroke-width:0.473403;stroke-linecap:square"
         x="-24.100706"
         y="12.858665"
         id="text23"><tspan
           sodipodi:role="line"
           id="tspan23"
           x="-24.100706"
           y="12.858665"
           style="font-style:normal;font-variant:normal;font-weight:normal;font-stretch:normal;font-family:'Liberation Serif';-inkscape-font-specification:'Liberation Serif';fill:#000000;stroke-width:0.473403">Day</tspan></text><text
         xml:space="preserve"
         style="font-size:0.901719px;line-height:1.5;font-family:Roboto;-inkscape-font-specification:Roboto;letter-spacing:0px;fill:#000000;stroke-width:0.473403;stroke-linecap:square"
         x="-29.840826"
         y="9.6618862"
         id="text24"><tspan
           sodipodi:role="line"
           id="tspan24"
           x="-29.840826"
           y="9.6618862"
           style="font-style:normal;font-variant:normal;font-weight:normal;font-stretch:normal;font-family:'Liberation Serif';-inkscape-font-specification:'Liberation Serif';fill:#000000;stroke-width:0.473403">Astronomy</tspan></text><path
         id="path21"
         style="fill:#000000"
         d="m -24.263635,8.691976 c -0.1849,0 -0.754621,0.5063524 -1.083655,0.9632487 -0.140718,0.1953748 -0.150554,0.2032386 -0.255799,0.2046386 -0.694922,0.00931 -1.251854,0.5295967 -1.328084,1.2407507 -0.01864,0.173914 0.02346,0.262299 0.05219,0.109555 0.152804,-0.812469 1.239875,-1.251138 1.963188,-0.7922 0.147891,0.09384 0.14393,0.113731 -0.13901,0.672827 -0.699048,1.381338 -1.665235,2.183659 -1.505334,1.250053 0.03527,-0.205968 0.03553,-0.206381 -0.04703,-0.304891 -0.100236,-0.119598 -0.0893,-0.130437 -0.237711,0.244429 -0.249601,0.630459 -0.34875,1.198383 -0.233578,1.337903 0.287706,0.348529 1.422259,-0.966206 2.330091,-2.700093 0.136986,-0.261637 0.136995,-0.261445 0.203605,-0.160714 0.100865,0.152538 0.158219,0.271818 0.209289,0.433048 0.04633,0.146152 0.04669,0.14612 0.04909,0.0052 0.0033,-0.190946 -0.06414,-0.468689 -0.152446,-0.629936 -0.07279,-0.132906 -0.07259,-0.132851 0.05633,-0.451652 0.348715,-0.8623163 0.395397,-1.422135 0.118856,-1.422135 z m -0.488859,0.9146728 c 0.03462,8.474e-4 0.06072,0.00984 0.07545,0.021187 0.05325,0.041029 0.07641,0.1070338 0.06356,0.2780192 -0.01314,0.174813 -0.0739,0.338998 -0.0739,0.338998 0,0 -0.174484,-0.1548 -0.267684,-0.207739 -0.102739,-0.058359 -0.276469,-0.1111052 -0.276469,-0.1111052 0,-5e-7 0.151893,-0.1650592 0.242362,-0.2299601 0.09686,-0.069482 0.178977,-0.090813 0.236679,-0.0894 z m -4.926832,0.214974 c -0.144813,0 -0.144875,2.83e-5 -0.522965,1.0051062 -0.367167,0.976043 -0.456914,1.165731 -0.567924,1.200961 -0.05242,0.01664 -0.06974,0.06721 -0.03514,0.101802 0.05083,0.05084 0.726571,0.01865 0.726571,-0.03462 0,-0.03413 -0.02371,-0.05885 -0.06718,-0.06976 -0.15383,-0.03861 -0.177939,-0.169606 -0.0832,-0.450619 0.06224,-0.184628 0.062,-0.184936 0.446485,-0.192236 0.384487,-0.0073 0.384364,-0.0074 0.446484,0.233578 0.07136,0.276761 0.05642,0.355689 -0.07803,0.402559 -0.05137,0.01791 -0.0801,0.04601 -0.0801,0.07906 0,0.07118 0.778013,0.06608 0.791683,-0.0052 0.0045,-0.02366 -0.02046,-0.05478 -0.05788,-0.07183 -0.111563,-0.05083 -0.142199,-0.128648 -0.46302,-1.18029 -0.310815,-1.018839 -0.310972,-1.0185422 -0.455787,-1.0185422 z m 6.184119,0.00155 c -0.421926,-0.012085 -0.791193,0.053921 -0.595829,0.144694 0.119356,0.055456 0.130482,0.1600722 0.119372,1.1296472 -0.0098,0.857866 -0.01118,0.869323 -0.128157,0.917773 -0.04699,0.01947 -0.07803,0.05202 -0.07803,0.08217 0,0.113643 1.081913,0.04716 1.345655,-0.08268 0.864502,-0.425594 0.6884,-1.989204 -0.242363,-2.1512906 -0.133451,-0.02324 -0.280004,-0.036279 -0.420646,-0.040308 z m -4.644678,0.011369 c -0.486021,0 -0.503845,0.00194 -0.503845,0.053227 0,0.02953 0.01816,0.053227 0.04031,0.053227 0.141399,0 0.145727,0.034183 0.145727,1.0479972 0,1.00799 0.0018,0.995977 -0.132808,1.038697 -0.02916,0.0093 -0.05323,0.03996 -0.05323,0.06821 0,0.04837 0.02249,0.05168 0.372587,0.05168 0.353232,0 0.372071,-0.0027 0.372071,-0.05271 0,-0.03413 -0.02371,-0.05885 -0.06718,-0.06976 -0.126198,-0.03167 -0.145727,-0.09686 -0.145727,-0.491443 0,-0.362809 -9.2e-5,-0.363261 0.288871,-0.375171 0.564177,-0.02325 0.837077,-0.288269 0.795817,-0.774113 -0.03716,-0.4376102 -0.264074,-0.5498366 -1.112594,-0.5498366 z m 0.176217,0.1617472 c 0.02121,1.201e-4 0.04568,0.00165 0.07338,0.0031 0.369969,0.019418 0.507629,0.154771 0.506429,0.498677 -8.99e-4,0.261895 -0.105539,0.419534 -0.31626,0.476974 -0.382934,0.104375 -0.411861,0.07062 -0.411861,-0.479041 0,-0.444834 -1.31e-4,-0.5005512 0.148311,-0.4997106 z m 4.464327,0.00207 c 0.02099,-5.752e-4 0.04494,8.213e-4 0.07235,0.00258 0.120614,0.0078 0.270426,0.03472 0.332796,0.05995 0.61979,0.250661 0.583178,1.704701 -0.04703,1.867586 -0.14591,0.03773 -0.364034,0.05794 -0.444934,0.04134 -0.05981,-0.01227 -0.05994,-0.01246 -0.05994,-0.997872 0,-0.862234 -1.51e-4,-0.969557 0.146761,-0.9735838 z m -6.245097,0.189653 c 0.0023,0.003 0.06569,0.21774 0.141077,0.476973 0.07539,0.259233 0.143945,0.489397 0.152445,0.511597 0.01335,0.03476 -0.03115,0.04031 -0.322461,0.04031 -0.258872,0 -0.335078,-0.0076 -0.326078,-0.03307 0.0064,-0.01827 0.0881,-0.251142 0.181384,-0.517282 0.09328,-0.266138 0.171333,-0.481523 0.173633,-0.478523 z" /></g></g></svg>
