<?xml version="1.0" encoding="UTF-8" standalone="no"?>
<!-- Created with Inkscape (http://www.inkscape.org/) -->

<svg
   width="154.08737mm"
   height="40.215328mm"
   viewBox="0 0 154.08737 40.215328"
   version="1.1"
   id="svg1"
   inkscape:version="1.3 (1:1.3+202307231459+0e150ed6c4)"
   sodipodi:docname="logo.svg"
   xmlns:inkscape="http://www.inkscape.org/namespaces/inkscape"
   xmlns:sodipodi="http://sodipodi.sourceforge.net/DTD/sodipodi-0.dtd"
   xmlns:xlink="http://www.w3.org/1999/xlink"
   xmlns="http://www.w3.org/2000/svg"
   xmlns:svg="http://www.w3.org/2000/svg">
  <sodipodi:namedview
     id="namedview1"
     pagecolor="#ffffff"
     bordercolor="#000000"
     borderopacity="0.25"
     inkscape:showpageshadow="2"
     inkscape:pageopacity="0.0"
     inkscape:pagecheckerboard="0"
     inkscape:deskcolor="#d1d1d1"
     inkscape:document-units="mm"
     showguides="true"
     inkscape:zoom="1.2896398"
     inkscape:cx="268.29198"
     inkscape:cy="100.41564"
     inkscape:window-width="1366"
     inkscape:window-height="699"
     inkscape:window-x="0"
     inkscape:window-y="32"
     inkscape:window-maximized="1"
     inkscape:current-layer="layer1" />
  <defs
     id="defs1">
    <linearGradient
       id="linearGradient25"
       inkscape:collect="always">
      <stop
         style="stop-color:#ff0000;stop-opacity:1;"
         offset="0"
         id="stop25" />
      <stop
         style="stop-color:#2b2b2b;stop-opacity:1;"
         offset="0.78542507"
         id="stop26" />
    </linearGradient>
    <linearGradient
       inkscape:collect="always"
       xlink:href="#linearGradient25"
       id="linearGradient28"
       gradientUnits="userSpaceOnUse"
       x1="1.3245946"
       y1="127.58755"
       x2="252.97501"
       y2="127.58755" />
    <linearGradient
       inkscape:collect="always"
       xlink:href="#linearGradient25"
       id="linearGradient29"
       gradientUnits="userSpaceOnUse"
       x1="1.3245946"
       y1="127.58755"
       x2="252.97501"
       y2="127.58755" />
    <linearGradient
       inkscape:collect="always"
       xlink:href="#linearGradient25"
       id="linearGradient30"
       gradientUnits="userSpaceOnUse"
       x1="1.3245946"
       y1="127.58755"
       x2="252.97501"
       y2="127.58755" />
    <linearGradient
       inkscape:collect="always"
       xlink:href="#linearGradient25"
       id="linearGradient31"
       gradientUnits="userSpaceOnUse"
       x1="1.3245946"
       y1="127.58755"
       x2="252.97501"
       y2="127.58755" />
    <linearGradient
       inkscape:collect="always"
       xlink:href="#linearGradient25"
       id="linearGradient32"
       gradientUnits="userSpaceOnUse"
       x1="1.3245946"
       y1="127.58755"
       x2="252.97501"
       y2="127.58755" />
    <linearGradient
       inkscape:collect="always"
       xlink:href="#linearGradient25"
       id="linearGradient33"
       gradientUnits="userSpaceOnUse"
       x1="1.3245946"
       y1="127.58755"
       x2="252.97501"
       y2="127.58755" />
    <linearGradient
       inkscape:collect="always"
       xlink:href="#linearGradient25"
       id="linearGradient34"
       gradientUnits="userSpaceOnUse"
       x1="1.3245946"
       y1="127.58755"
       x2="252.97501"
       y2="127.58755" />
  </defs>
  <g
     inkscape:label="Layer 1"
     inkscape:groupmode="layer"
     id="layer1"
     transform="translate(-28.569386,-12.121088)">
    <g
       id="g35"
       transform="translate(-7.9372085,-37.13152)">
      <g
         id="g34">
        <text
           xml:space="preserve"
           style="font-size:22.5778px;line-height:1.5;font-family:Roboto;-inkscape-font-specification:Roboto;letter-spacing:0px;fill:#2b2b2b;stroke-width:0.529167;stroke-linecap:square"
           x="67.363182"
           y="85.068123"
           id="text26"><tspan
             sodipodi:role="line"
             id="tspan26"
             style="font-style:normal;font-variant:normal;font-weight:normal;font-stretch:normal;font-family:Jost;-inkscape-font-specification:Jost;stroke-width:0.529167"
             x="67.363182"
             y="85.068123">MeteoGlobe</tspan></text>
      </g>
      <g
         id="g28"
         transform="matrix(0.11615788,-0.01633189,0.01633189,0.11615788,38.273167,56.700152)"
         style="fill:url(#linearGradient34);fill-opacity:1;stroke-width:2.2556">
        <circle
           id="circle26"
           cx="52.299999"
           cy="202"
           r="32.5"
           style="fill:url(#linearGradient28);fill-opacity:1;stroke-width:2.2556" />
        <g
           id="g27"
           style="fill:url(#linearGradient31);fill-opacity:1;stroke-width:2.2556">&#10;	<g
   id="g26"
   style="fill:url(#linearGradient30);fill-opacity:1;stroke-width:2.2556">&#10;		<path
   id="path26"
   fill="none"
   stroke="#000000"
   stroke-width="11.278"
   stroke-miterlimit="10"
   d="M 92.1,102.5"
   style="fill:url(#linearGradient29);fill-opacity:1" />
&#10;	</g>
&#10;</g>
        <path
           id="path27"
           d="m 190.3,59.6 5.2,5.2 -92.9,92 -5.2,-5.2 z M 170.1,30.1 c -1.7,1.7 -4.5,1.7 -6.3,0 v 0 c -1.7,-1.7 -1.7,-4.5 0,-6.3 v 0 c 1.7,-1.7 4.5,-1.7 6.3,0 v 0 c 1.8,1.8 1.8,4.6 0,6.3 z m -12.5,12.5 c -1.7,1.7 -4.5,1.7 -6.3,0 v 0 c -1.7,-1.7 -1.7,-4.5 0,-6.3 v 0 c 1.7,-1.7 4.5,-1.7 6.3,0 v 0 c 1.7,1.8 1.7,4.6 0,6.3 z m -12.5,12.5 c -1.7,1.7 -4.5,1.7 -6.3,0 v 0 c -1.7,-1.7 -1.7,-4.5 0,-6.3 v 0 c 1.7,-1.7 4.5,-1.7 6.3,0 v 0 c 1.7,1.8 1.7,4.6 0,6.3 z m 85.5,35.5 c -1.7,1.7 -4.5,1.7 -6.3,0 v 0 c -1.7,-1.7 -1.7,-4.5 0,-6.3 v 0 c 1.7,-1.7 4.5,-1.7 6.3,0 v 0 c 1.7,1.8 1.7,4.6 0,6.3 z m -12.5,12.5 c -1.7,1.7 -4.5,1.7 -6.3,0 v 0 c -1.7,-1.7 -1.7,-4.5 0,-6.3 v 0 c 1.7,-1.7 4.5,-1.7 6.3,0 v 0 c 1.7,1.8 1.7,4.6 0,6.3 z m -12.6,12.5 c -1.7,1.7 -4.5,1.7 -6.3,0 v 0 c -1.7,-1.7 -1.7,-4.5 0,-6.3 v 0 c 1.7,-1.7 4.5,-1.7 6.3,0 v 0 c 1.8,1.8 1.8,4.6 0,6.3 z M 221.9,3.9 v 0 c -1.7,-1.7 -4.5,-1.7 -6.3,0 v 0 c -1.7,1.7 -1.7,4.5 0,6.3 v 0 c 1.7,1.7 4.5,1.7 6.3,0 1.8,-1.7 1.7,-4.5 0,-6.3 z m -12.5,12.5 v 0 c -1.7,-1.7 -4.5,-1.7 -6.3,0 v 0 c -1.7,1.7 -1.7,4.5 0,6.3 v 0 c 1.7,1.7 4.5,1.7 6.3,0 1.7,-1.7 1.7,-4.5 0,-6.3 z m -12.6,12.5 v 0 c -1.7,-1.7 -4.5,-1.7 -6.3,0 v 0 c -1.7,1.7 -1.7,4.5 0,6.3 v 0 c 1.7,1.7 4.5,1.7 6.3,0 1.7,-1.7 1.8,-4.5 0,-6.3 z m -12.5,12.5 v 0 c -1.7,-1.7 -4.5,-1.7 -6.3,0 v 0 c -1.7,1.7 -1.7,4.5 0,6.3 v 0 c 1.7,1.7 4.5,1.7 6.3,0 1.7,-1.7 1.7,-4.5 0,-6.3 z m -12.5,12.5 v 0 c -1.7,-1.7 -4.5,-1.7 -6.3,0 v 0 c -1.7,1.7 -1.7,4.5 0,6.3 v 0 c 1.7,1.7 4.5,1.7 6.3,0 1.8,-1.7 1.7,-4.5 0,-6.3 z m -12.6,12.5 v 0 c -1.7,-1.7 -4.5,-1.7 -6.3,0 v 0 c -1.7,1.7 -1.7,4.5 0,6.3 v 0 c 1.7,1.7 4.5,1.7 6.3,0 1.8,-1.7 1.8,-4.5 0,-6.3 z m -13.3,9.5 5.2,5.2 -40.9,40.7 -5.2,-5.2 z M 251.7,33.8 v 0 c -1.7,-1.7 -4.5,-1.7 -6.3,0 v 0 c -1.7,1.7 -1.7,4.5 0,6.3 v 0 c 1.7,1.7 4.5,1.7 6.3,0 1.7,-1.8 1.7,-4.6 0,-6.3 z m -12.5,12.5 v 0 c -1.7,-1.7 -4.5,-1.7 -6.3,0 v 0 c -1.7,1.7 -1.7,4.5 0,6.3 v 0 c 1.7,1.7 4.5,1.7 6.3,0 1.7,-1.7 1.7,-4.6 0,-6.3 z m -12.6,12.5 v 0 c -1.7,-1.7 -4.5,-1.7 -6.3,0 v 0 c -1.7,1.7 -1.7,4.5 0,6.3 v 0 c 1.7,1.7 4.5,1.7 6.3,0 1.8,-1.7 1.8,-4.5 0,-6.3 z m -12.5,12.5 v 0 c -1.7,-1.7 -4.5,-1.7 -6.3,0 v 0 c -1.7,1.7 -1.7,4.5 0,6.3 v 0 c 1.7,1.7 4.5,1.7 6.3,0 1.7,-1.7 1.8,-4.5 0,-6.3 z m -12.5,12.5 v 0 c -1.7,-1.7 -4.5,-1.7 -6.3,0 v 0 c -1.7,1.7 -1.7,4.5 0,6.3 v 0 c 1.7,1.7 4.5,1.7 6.3,0 1.8,-1.7 1.7,-4.5 0,-6.3 z m -12.5,12.5 v 0 c -1.7,-1.7 -4.5,-1.7 -6.3,0 v 0 c -1.7,1.7 -1.7,4.5 0,6.3 v 0 c 1.7,1.7 4.5,1.7 6.3,0 1.8,-1.7 1.7,-4.5 0,-6.3 z m -13.2,9.6 5.2,5.3 -42.5,41.3 -5.2,-5.3 z"
           style="fill:url(#linearGradient32);fill-opacity:1;stroke-width:2.2556" />
        <path
           id="path28"
           d="M 75.5,232.3 C 60.7,247.1 36.7,246.9 21.9,232.1 7,217.2 6.8,193.1 21.6,178.4 v 0 L 137.4,62.4 130.8,55.8 15.1,171.9 v 0 c -18.5,18.5 -18.3,48.4 0.2,66.8 18.4,18.4 48.3,18.5 66.8,0.1 v 0 L 198,123 l -6.6,-6.6 z"
           style="fill:url(#linearGradient33);fill-opacity:1;stroke-width:2.2556" />
      </g>
    </g>
  </g>
</svg>
